<svg width="1090" height="242" viewBox="0 0 1090 242" fill="none" xmlns="http://www.w3.org/2000/svg">
<mask id="mask0_324_520" style="mask-type:alpha" maskUnits="userSpaceOnUse" x="0" y="0" width="1090" height="242">
<path d="M70.5 170C110.75 170 138.25 148.25 138.25 116V112.5H101V114.5C101 130.5 89.25 136.25 69.75 136.25C47.5 136.25 37.25 128 37.25 105C37.25 81.75 47.5 73.5 69.75 73.5C89.25 73.5 101 79.25 101 95.25V97.25H138.25V93.75C138.25 61.25 110.75 39.75 70.5 39.75C27.5 39.75 0 65 0 105C0 144.5 27.5 170 70.5 170Z" fill="#000117"/>
<path d="M221.135 170C263.885 170 292.635 144.5 292.635 105C292.635 65 263.885 39.75 221.135 39.75C178.385 39.75 149.635 65 149.635 105C149.635 144.5 178.385 170 221.135 170ZM221.135 136.75C195.635 136.75 186.885 127 186.885 105C186.885 83 195.635 72.75 221.135 72.75C246.385 72.75 255.385 83 255.385 105C255.385 127 246.385 136.75 221.135 136.75Z" fill="#000117"/>
<path d="M345.449 167.5V0H307.949V167.5H345.449Z" fill="#000117"/>
<path d="M431.828 170C474.578 170 503.328 144.5 503.328 105C503.328 65 474.578 39.75 431.828 39.75C389.078 39.75 360.328 65 360.328 105C360.328 144.5 389.078 170 431.828 170ZM431.828 136.75C406.328 136.75 397.578 127 397.578 105C397.578 83 406.328 72.75 431.828 72.75C457.078 72.75 466.078 83 466.078 105C466.078 127 457.078 136.75 431.828 136.75Z" fill="#000117"/>
<path d="M556.143 167.5V95C556.143 79.25 562.143 71.5 578.893 71.5C594.143 71.5 599.643 77.5 599.643 91.25V104.25H637.143V83.5C637.143 59 625.643 39.75 597.643 39.75C572.393 39.75 559.143 55.25 555.643 75.5H553.393V42.25H518.643V167.5H556.143Z" fill="#000117"/>
<path d="M738.973 167.5V133.75H716.473C703.223 133.75 698.473 130.5 698.473 118V73.25H738.973V42.25H698.473V18H660.973V42.25H641.223V73.25H660.973V122.25C660.973 153.75 678.723 167.5 707.973 167.5H738.973Z" fill="#000117"/>
<path d="M790.518 167.5V95C790.518 79.25 796.518 71.5 813.268 71.5C828.518 71.5 834.018 77.5 834.018 91.25V104.25H871.518V83.5C871.518 59 860.018 39.75 832.018 39.75C806.768 39.75 793.518 55.25 790.018 75.5H787.768V42.25H753.018V167.5H790.518Z" fill="#000117"/>
<path d="M922.598 29.5V0H885.098V29.5H922.598ZM922.598 167.5V42.25H885.098V167.5H922.598Z" fill="#000117"/>
<path d="M979.727 242V133.75H981.477C985.727 155.75 1001.73 170 1030.73 170C1068.48 170 1089.48 144.75 1089.48 105C1089.48 65.25 1067.98 39.75 1029.48 39.75C999.977 39.75 983.977 52.5 979.477 76.5H976.977V42.25H942.227V242H979.727ZM979.727 106.75V104.75C979.727 82.5 992.227 74.25 1016.48 74.25C1040.23 74.25 1051.48 82 1051.48 105C1051.48 127.75 1040.23 135.75 1016.23 135.75C992.727 135.75 979.727 128.25 979.727 106.75Z" fill="#000117"/>
</mask>
<g mask="url(#mask0_324_520)">
<g filter="url(#filter0_f_324_520)">
<path d="M1051 -4.21914C1326 261.033 967.024 174.381 736.434 344.36C505.844 514.338 490.961 876.579 215.96 611.327C-59.0405 346.075 -95.0428 -6.74877 135.547 -176.727C366.137 -346.705 775.999 -269.471 1051 -4.21914Z" fill="#004818"/>
</g>
<path d="M1436.81 360.281C1302.1 500.173 1049.06 527.478 871.624 421.269C694.192 315.06 531.479 75.3505 666.19 -64.5412C800.901 -204.433 591.429 -448.221 768.861 -342.011C946.294 -235.802 1571.52 220.39 1436.81 360.281Z" fill="#004818"/>
<path d="M739.009 98.8016C653.758 184.013 522.062 203.889 444.858 143.197C367.654 82.5053 374.178 -35.7724 459.429 -120.983C544.681 -206.194 570.773 -120.518 647.977 -59.8257C725.181 0.866247 824.261 13.5905 739.009 98.8016Z" fill="#FFCB44"/>
<path d="M402.483 177.36C438.922 216.24 483.968 229.289 456.053 262.54C428.139 295.79 375.97 291.226 339.53 252.346C303.091 213.466 296.18 154.993 324.094 121.743C352.009 88.4922 366.043 138.48 402.483 177.36Z" fill="#65B025"/>
<path d="M217.788 102.038C162.471 113.724 125.861 147.423 111.039 103.81C96.2163 60.1964 129.044 15.3673 184.361 3.68115C239.678 -8.00501 296.537 17.8771 311.359 61.4904C326.182 105.104 273.105 90.3515 217.788 102.038Z" fill="#CB4D44"/>
<path d="M230.142 165.523C248.656 211.363 196.293 186.611 138.151 201.209C80.0096 215.806 38.1058 264.224 19.5915 218.384C1.07716 172.543 33.2017 123.549 91.3435 108.952C149.485 94.3548 211.627 119.683 230.142 165.523Z" fill="#017027"/>
</g>
<defs>
<filter id="filter0_f_324_520" x="-50.3496" y="-300.949" width="1234.7" height="1040.38" filterUnits="userSpaceOnUse" color-interpolation-filters="sRGB">
<feFlood flood-opacity="0" result="BackgroundImageFix"/>
<feBlend mode="normal" in="SourceGraphic" in2="BackgroundImageFix" result="shape"/>
<feGaussianBlur stdDeviation="17" result="effect1_foregroundBlur_324_520"/>
</filter>
</defs>
</svg>
