<svg width="1090" height="242" viewBox="0 0 1090 242" fill="none" xmlns="http://www.w3.org/2000/svg">
<mask id="mask0_324_523" style="mask-type:alpha" maskUnits="userSpaceOnUse" x="0" y="0" width="1090" height="242">
<path id="one-2" d="M70.5 170C110.75 170 138.25 148.25 138.25 116V112.5H101V114.5C101 130.5 89.25 136.25 69.75 136.25C47.5 136.25 37.25 128 37.25 105C37.25 81.75 47.5 73.5 69.75 73.5C89.25 73.5 101 79.25 101 95.25V97.25H138.25V93.75C138.25 61.25 110.75 39.75 70.5 39.75C27.5 39.75 0 65 0 105C0 144.5 27.5 170 70.5 170Z" fill="#000117"/>
<path d="M221.135 170C263.885 170 292.635 144.5 292.635 105C292.635 65 263.885 39.75 221.135 39.75C178.385 39.75 149.635 65 149.635 105C149.635 144.5 178.385 170 221.135 170ZM221.135 136.75C195.635 136.75 186.885 127 186.885 105C186.885 83 195.635 72.75 221.135 72.75C246.385 72.75 255.385 83 255.385 105C255.385 127 246.385 136.75 221.135 136.75Z" fill="#000117"/>
<path d="M345.449 167.5V0H307.949V167.5H345.449Z" fill="#000117"/>
<path d="M431.828 170C474.578 170 503.328 144.5 503.328 105C503.328 65 474.578 39.75 431.828 39.75C389.078 39.75 360.328 65 360.328 105C360.328 144.5 389.078 170 431.828 170ZM431.828 136.75C406.328 136.75 397.578 127 397.578 105C397.578 83 406.328 72.75 431.828 72.75C457.078 72.75 466.078 83 466.078 105C466.078 127 457.078 136.75 431.828 136.75Z" fill="#000117"/>
<path d="M556.143 167.5V95C556.143 79.25 562.143 71.5 578.893 71.5C594.143 71.5 599.643 77.5 599.643 91.25V104.25H637.143V83.5C637.143 59 625.643 39.75 597.643 39.75C572.393 39.75 559.143 55.25 555.643 75.5H553.393V42.25H518.643V167.5H556.143Z" fill="#000117"/>
<path d="M738.973 167.5V133.75H716.473C703.223 133.75 698.473 130.5 698.473 118V73.25H738.973V42.25H698.473V18H660.973V42.25H641.223V73.25H660.973V122.25C660.973 153.75 678.723 167.5 707.973 167.5H738.973Z" fill="#000117"/>
<path d="M790.518 167.5V95C790.518 79.25 796.518 71.5 813.268 71.5C828.518 71.5 834.018 77.5 834.018 91.25V104.25H871.518V83.5C871.518 59 860.018 39.75 832.018 39.75C806.768 39.75 793.518 55.25 790.018 75.5H787.768V42.25H753.018V167.5H790.518Z" fill="#000117"/>
<path d="M922.598 29.5V0H885.098V29.5H922.598ZM922.598 167.5V42.25H885.098V167.5H922.598Z" fill="#000117"/>
<path d="M979.727 242V133.75H981.477C985.727 155.75 1001.73 170 1030.73 170C1068.48 170 1089.48 144.75 1089.48 105C1089.48 65.25 1067.98 39.75 1029.48 39.75C999.977 39.75 983.977 52.5 979.477 76.5H976.977V42.25H942.227V242H979.727ZM979.727 106.75V104.75C979.727 82.5 992.227 74.25 1016.48 74.25C1040.23 74.25 1051.48 82 1051.48 105C1051.48 127.75 1040.23 135.75 1016.23 135.75C992.727 135.75 979.727 128.25 979.727 106.75Z" fill="#000117"/>
</mask>
<g mask="url(#mask0_324_523)">
<g filter="url(#filter0_f_324_523)">
<path d="M1051 -4.21914C1326 261.033 967.024 174.381 736.434 344.36C505.844 514.338 490.961 876.579 215.96 611.327C-59.0405 346.075 -95.0428 -6.74877 135.547 -176.727C366.137 -346.705 775.999 -269.471 1051 -4.21914Z" fill="#004818"/>
</g>
<path d="M1436.81 360.281C1302.1 500.173 1049.06 527.478 871.624 421.269C694.192 315.06 531.479 75.3505 666.19 -64.5412C800.901 -204.433 591.429 -448.221 768.861 -342.011C946.294 -235.802 1571.52 220.39 1436.81 360.281Z" fill="#004818"/>
<path d="M844.8 -10.0917C829.506 61.009 737.837 111.296 640.053 102.228C542.269 93.1599 475.398 28.1704 490.693 -42.9303C505.988 -114.031 552.702 -10.8951 650.486 -1.82693C748.27 7.2412 860.095 -81.1925 844.8 -10.0917Z" fill="#FFCB44"/>
<path d="M408.537 164.638C363.712 193.451 342.737 235.396 315.079 201.932C287.421 168.468 301.337 117.983 346.163 89.1702C390.988 60.3574 449.748 64.1279 477.406 97.5919C505.064 131.056 453.362 135.825 408.537 164.638Z" fill="#65B025"/>
<path d="M194.121 201.278C140.073 184.684 91.7156 196.411 99.8936 151.08C108.072 105.748 158.516 82.4525 212.563 99.0469C266.611 115.641 303.796 165.842 295.618 211.174C287.44 256.505 248.168 217.873 194.121 201.278Z" fill="#CB4D44"/>
<path d="M85.0734 99.0015C103.588 144.842 51.225 120.09 -6.91691 134.687C-65.0588 149.284 -106.963 197.703 -125.477 151.862C-143.991 106.022 -111.867 57.0275 -53.7248 42.4304C4.41703 27.8333 66.5591 53.161 85.0734 99.0015Z" fill="#017027"/>
</g>
<defs>
<filter id="filter0_f_324_523" x="-50.3496" y="-300.949" width="1234.7" height="1040.38" filterUnits="userSpaceOnUse" color-interpolation-filters="sRGB">
<feFlood flood-opacity="0" result="BackgroundImageFix"/>
<feBlend mode="normal" in="SourceGraphic" in2="BackgroundImageFix" result="shape"/>
<feGaussianBlur stdDeviation="17" result="effect1_foregroundBlur_324_523"/>
</filter>
</defs>
</svg>
