<svg width="29" height="23" viewBox="0 0 29 23" fill="none" xmlns="http://www.w3.org/2000/svg">
<path d="M0.25 11.5C1.46638 4.95778 7.27265 0 14.25 0C21.2274 0 27.0323 4.95778 28.25 11.5C27.0336 18.0422 21.2274 23 14.25 23C7.27265 23 1.46767 18.0422 0.25 11.5ZM14.25 17.8889C15.966 17.8889 17.6117 17.2158 18.8251 16.0176C20.0384 14.8195 20.7201 13.1944 20.7201 11.5C20.7201 9.80556 20.0384 8.18052 18.8251 6.98237C17.6117 5.78422 15.966 5.11111 14.25 5.11111C12.534 5.11111 10.8883 5.78422 9.67495 6.98237C8.46157 8.18052 7.7799 9.80556 7.7799 11.5C7.7799 13.1944 8.46157 14.8195 9.67495 16.0176C10.8883 17.2158 12.534 17.8889 14.25 17.8889ZM14.25 15.3333C13.2204 15.3333 12.233 14.9295 11.505 14.2106C10.7769 13.4917 10.3679 12.5167 10.3679 11.5C10.3679 10.4833 10.7769 9.50831 11.505 8.78942C12.233 8.07053 13.2204 7.66667 14.25 7.66667C15.2796 7.66667 16.267 8.07053 16.995 8.78942C17.7231 9.50831 18.1321 10.4833 18.1321 11.5C18.1321 12.5167 17.7231 13.4917 16.995 14.2106C16.267 14.9295 15.2796 15.3333 14.25 15.3333Z" fill="#7BB2D9"/>
</svg>
