<svg width="234" height="63" viewBox="0 0 234 63" fill="none" xmlns="http://www.w3.org/2000/svg">
<circle cx="31" cy="31.5" r="31" fill="#FFBD40"/>
<path fill-rule="evenodd" clip-rule="evenodd" d="M173.416 9.44464L169.76 8.73184V29.4031H177.038V8.73184L173.416 9.44464ZM170.328 6.13011C171.109 6.74787 172.126 7.05676 173.381 7.05676C174.683 7.05676 175.712 6.74787 176.47 6.13011C177.251 5.48859 177.641 4.62134 177.641 3.52838C177.641 2.45917 177.251 1.60381 176.47 0.962286C175.712 0.320761 174.683 0 173.381 0C172.126 0 171.109 0.320761 170.328 0.962286C169.547 1.60381 169.156 2.45917 169.156 3.52838C169.156 4.62134 169.547 5.48859 170.328 6.13011ZM150.653 1.96021V20.4597L159.884 9.0526H167.517L160.505 17.1396L168.05 29.4031H159.884L155.863 22.4938L149.872 29.4031H143.375V1.96021H150.653ZM54.5462 26.7301C55.4929 25.6609 55.9663 24.3422 55.9663 22.7741C55.9663 21.5623 55.6823 20.5169 55.1142 19.6377C54.5462 18.7586 53.5876 18.0577 52.2385 17.535C50.8894 16.9885 49.0432 16.644 46.7 16.5014L41.9782 16.145C40.8421 16.05 40.061 15.8836 39.635 15.646C39.2326 15.4084 39.0314 15.0877 39.0314 14.6837C39.0314 14.161 39.3628 13.7571 40.0255 13.472C40.7119 13.1869 41.706 13.0443 43.0077 13.0443C44.1202 13.0443 45.0314 13.1631 45.7415 13.4007C46.4515 13.6383 47.0077 13.9472 47.4101 14.3273C47.8125 14.6837 48.0728 15.0877 48.1912 15.5391H55.5402C55.3746 14.1135 54.7592 12.878 53.6941 11.8325C52.629 10.7633 51.2089 9.93173 49.4338 9.33772C47.6586 8.74372 45.635 8.44672 43.3628 8.44672C41.0669 8.44672 39.0551 8.70808 37.3273 9.2308C35.6232 9.72977 34.2859 10.4901 33.3155 11.5118C32.3687 12.5097 31.8954 13.7809 31.8954 15.3253C31.8954 16.4658 32.203 17.4874 32.8184 18.3903C33.4338 19.2695 34.4397 19.9941 35.8362 20.5644C37.2563 21.1109 39.1616 21.4673 41.5521 21.6336L45.1379 21.9187C46.5107 22.0375 47.4811 22.2157 48.0492 22.4533C48.6172 22.6672 48.9012 22.9998 48.9012 23.4512C48.9012 24.0215 48.5225 24.4492 47.7651 24.7343C47.0314 25.0194 45.9426 25.162 44.4989 25.162C43.3864 25.162 42.4279 25.0669 41.6231 24.8768C40.8184 24.663 40.1675 24.366 39.6705 23.9858C39.1971 23.5819 38.8776 23.1067 38.7119 22.5602H31.3628C31.4338 24.0334 32.0019 25.3283 33.067 26.445C34.132 27.5617 35.6113 28.429 37.5048 29.0467C39.422 29.6645 41.6468 29.9734 44.1793 29.9734C46.6409 29.9734 48.7474 29.7001 50.4988 29.1537C52.2503 28.6072 53.5994 27.7993 54.5462 26.7301ZM66.3412 8.96949V12.8868C67.2589 11.5858 68.3692 10.5572 69.672 9.80105C71.1868 8.89816 72.9028 8.44672 74.82 8.44672C76.8081 8.44672 78.5477 8.89816 80.0389 9.80105C81.5537 10.7039 82.7253 11.9632 83.5537 13.5789C84.4057 15.1946 84.8318 17.0835 84.8318 19.2457C84.8318 21.3603 84.4057 23.2374 83.5537 24.8768C82.7253 26.4925 81.5537 27.7518 80.0389 28.6547C78.5477 29.5338 76.8081 29.9734 74.82 29.9734C72.9028 29.9734 71.1868 29.5338 69.672 28.6547C68.3565 27.8706 67.2462 26.8176 66.3412 25.4958V63H58.2939V8.96949H66.3412ZM66.3412 18.4337V20.0409C66.6603 20.7232 67.0605 21.3492 67.5419 21.9187C68.2046 22.7028 68.9738 23.3206 69.8496 23.772C70.7253 24.1997 71.6484 24.4135 72.6188 24.4135C73.5655 24.4135 74.4057 24.1997 75.1395 23.772C75.8969 23.3206 76.4768 22.7028 76.8791 21.9187C77.3051 21.1346 77.5182 20.2436 77.5182 19.2457C77.5182 18.224 77.3051 17.3211 76.8791 16.537C76.4768 15.753 75.8969 15.1352 75.1395 14.6837C74.4057 14.2323 73.5655 14.0066 72.6188 14.0066C71.6484 14.0066 70.7253 14.2323 69.8496 14.6837C68.9738 15.1352 68.2046 15.753 67.5419 16.537C67.0605 17.1066 66.6603 17.7388 66.3412 18.4337ZM131.842 25.2565L132.363 29.4031H139.89L138.612 19.2101L139.89 9.0526H132.363L131.852 13.1346C130.903 11.7158 129.736 10.6046 128.351 9.80105C126.86 8.89816 125.156 8.44672 123.239 8.44672C121.251 8.44672 119.499 8.89816 117.984 9.80105C116.493 10.7039 115.322 11.9632 114.47 13.5789C113.618 15.1946 113.192 17.0835 113.192 19.2457C113.192 21.3603 113.618 23.2374 114.47 24.8768C115.322 26.4925 116.493 27.7518 117.984 28.6547C119.499 29.5338 121.251 29.9734 123.239 29.9734C125.156 29.9734 126.86 29.5338 128.351 28.6547C129.745 27.8238 130.909 26.6911 131.842 25.2565ZM121.144 21.9187C120.742 21.1346 120.541 20.2436 120.541 19.2457C120.541 18.224 120.742 17.3211 121.144 16.537C121.57 15.753 122.15 15.1352 122.884 14.6837C123.618 14.2323 124.458 14.0066 125.405 14.0066C126.399 14.0066 127.334 14.2323 128.209 14.6837C129.085 15.1352 129.854 15.753 130.517 16.537C131.18 17.3211 131.677 18.224 132.008 19.2457C131.677 20.2436 131.18 21.1346 130.517 21.9187C129.854 22.7028 129.085 23.3206 128.209 23.772C127.334 24.1997 126.399 24.4135 125.405 24.4135C124.458 24.4135 123.618 24.1997 122.884 23.772C122.15 23.3206 121.57 22.7028 121.144 21.9187ZM180.069 9.0526H187.347L188.035 13.3062C188.1 13.1932 188.166 13.0822 188.235 12.973C189.158 11.4761 190.294 10.3475 191.643 9.5872C192.992 8.82688 194.483 8.44672 196.116 8.44672C198.057 8.44672 199.714 8.83876 201.087 9.62285C202.459 10.4069 203.501 11.5118 204.211 12.9374C204.945 14.363 205.311 16.05 205.311 17.9983V29.4031H198.069V19.0675C198.069 17.5468 197.678 16.3826 196.897 15.5748C196.14 14.7669 195.039 14.363 193.596 14.363C192.601 14.363 191.726 14.5768 190.968 15.0045C190.235 15.4322 189.667 16.0381 189.264 16.8222C188.862 17.6062 188.661 18.5329 188.661 19.6021V29.4031H181.418V16.0737L180.069 9.0526ZM226.757 23.5446V24.271C226.757 26.4806 226.142 28.0845 224.911 29.0824C223.704 30.0803 221.941 30.5793 219.621 30.5793C217.988 30.5793 216.355 30.3298 214.722 29.8308C213.112 29.3556 211.574 28.5715 210.107 27.4786V32.9672C211.692 33.9176 213.278 34.6304 214.864 35.1056C216.473 35.6045 218.213 35.854 220.083 35.854C222.899 35.854 225.337 35.3907 227.396 34.464C229.479 33.5374 231.101 32.1831 232.26 30.4011C233.42 28.6191 234 26.4806 234 23.9858V9.0526H226.757V12.382C226.281 11.8468 225.736 11.3428 225.124 10.8703C224.201 10.1337 223.148 9.55157 221.965 9.12388C220.781 8.67244 219.479 8.44672 218.059 8.44672C216.142 8.44672 214.438 8.83876 212.947 9.62285C211.456 10.4069 210.272 11.4999 209.397 12.9017C208.544 14.3036 208.118 15.9549 208.118 17.8557C208.118 19.7328 208.544 21.3841 209.397 22.8097C210.272 24.2116 211.456 25.3045 212.947 26.0886C214.438 26.8727 216.142 27.2647 218.059 27.2647C219.834 27.2647 221.42 26.9558 222.817 26.3381C224.237 25.6966 225.432 24.8887 226.402 23.9146C226.524 23.792 226.643 23.6687 226.757 23.5446ZM227.006 17.8557C226.225 16.3351 225.29 15.2184 224.201 14.5055C223.112 13.769 221.882 13.4007 220.509 13.4007C219.467 13.4007 218.556 13.5789 217.775 13.9353C217.018 14.2917 216.438 14.8144 216.036 15.5035C215.633 16.1688 215.432 16.9528 215.432 17.8557C215.432 18.7348 215.633 19.5189 216.036 20.208C216.438 20.8733 217.018 21.396 217.775 21.7761C218.533 22.1325 219.444 22.3107 220.509 22.3107C221.905 22.3107 223.148 21.9425 224.237 21.2059C225.325 20.4693 226.249 19.3526 227.006 17.8557ZM54.1123 58.6519C55.2484 57.2738 55.9112 55.67 56.1005 53.8405H48.8934C48.6567 54.981 48.0532 55.8957 47.0828 56.5848C46.136 57.2738 44.9763 57.6183 43.6035 57.6183C42.5384 57.6183 41.6035 57.4164 40.7988 57.0124C40.0177 56.5848 39.4023 55.9789 38.9526 55.1948C38.5266 54.387 38.3136 53.4128 38.3136 52.2723C38.3136 51.1081 38.5266 50.1339 38.9526 49.3498C39.4023 48.542 40.0177 47.9361 40.7988 47.5322C41.6035 47.1045 42.5384 46.8906 43.6035 46.8906C44.9763 46.8906 46.136 47.2233 47.0828 47.8886C48.0295 48.5301 48.6331 49.4567 48.8934 50.6685H56.1005C55.9112 48.8152 55.2484 47.2114 54.1123 45.8571C52.9763 44.479 51.497 43.4098 49.6745 42.6495C47.8757 41.8654 45.852 41.4733 43.6035 41.4733C41.1183 41.4733 38.929 41.9367 37.0355 42.8633C35.142 43.7662 33.6627 45.0255 32.5976 46.6412C31.5325 48.2568 31 50.1339 31 52.2723C31 54.387 31.5325 56.2521 32.5976 57.8678C33.6627 59.4835 35.142 60.7428 37.0355 61.6457C38.929 62.5486 41.1183 63 43.6035 63C45.852 63 47.8757 62.6198 49.6745 61.8595C51.497 61.0992 52.9763 60.03 54.1123 58.6519ZM78.9679 63C77.0745 63 75.4532 62.608 74.1041 61.8239C72.7786 61.0398 71.7609 59.9349 71.0508 58.5093C70.3407 57.06 69.9857 55.373 69.9857 53.4484V42.0792H77.2283V52.4149C77.2283 53.9118 77.5952 55.0641 78.3289 55.872C79.0626 56.6798 80.1159 57.0837 81.4886 57.0837C82.5064 57.0837 83.3585 56.8818 84.0448 56.4778C84.7312 56.0502 85.2638 55.4443 85.6425 54.6602C86.0212 53.8761 86.2105 52.9376 86.2105 51.8446V42.0792H93.4531V55.4086L94.7667 62.4298H87.5241L86.846 58.2165C86.7894 58.3155 86.7314 58.4131 86.6721 58.5093C85.7727 59.9825 84.6602 61.0992 83.3348 61.8595C82.0094 62.6198 80.5537 63 78.9679 63ZM105.11 34.9868H97.8322V62.4298H105.11V58.513C106.016 59.8392 107.129 60.8953 108.448 61.6813C109.962 62.5604 111.678 63 113.595 63C115.584 63 117.323 62.5604 118.814 61.6813C120.329 60.7784 121.501 59.5191 122.329 57.9035C123.181 56.264 123.607 54.387 123.607 52.2723C123.607 50.1101 123.181 48.2212 122.329 46.6055C121.501 44.9898 120.329 43.7305 118.814 42.8277C117.323 41.9248 115.584 41.4733 113.595 41.4733C111.702 41.4733 109.986 41.9248 108.448 42.8277C107.129 43.593 106.016 44.6374 105.11 45.961V34.9868ZM115.655 49.5637C116.081 50.3477 116.294 51.2506 116.294 52.2723C116.294 53.2702 116.081 54.1612 115.655 54.9453C115.252 55.7294 114.684 56.3472 113.95 56.7986C113.217 57.2263 112.365 57.4401 111.394 57.4401C110.424 57.4401 109.501 57.2263 108.625 56.7986C107.749 56.3472 106.98 55.7294 106.317 54.9453C105.655 54.1612 105.146 53.2702 104.791 52.2723C105.146 51.2506 105.655 50.3477 106.317 49.5637C106.98 48.7796 107.749 48.1618 108.625 47.7104C109.501 47.2589 110.424 47.0332 111.394 47.0332C112.365 47.0332 113.217 47.2589 113.95 47.7104C114.684 48.1618 115.252 48.7796 115.655 49.5637ZM95.4609 29.6532C97.5518 30.1063 99.798 30.0615 102.2 29.5189C104.208 29.0651 106.024 28.3991 107.647 27.521C109.287 26.6145 111.115 25.3047 112.27 24.0697L111.256 19.5495C110.235 20.511 108.61 21.5922 107.244 22.315C105.895 23.0093 104.494 23.5208 103.039 23.8495C101.446 24.2095 100.043 24.2829 98.8307 24.0697C97.6415 23.8513 96.6621 23.3785 95.8926 22.6512C95.7408 22.4986 95.5986 22.3359 95.466 22.1631L111.112 18.6281C110.54 16.0783 109.582 13.9689 108.237 12.3C106.916 10.6259 105.298 9.46927 103.384 8.83018C101.487 8.1627 99.3499 8.09764 96.9715 8.635C94.6855 9.15149 92.7291 10.0562 91.1024 11.3492C89.4988 12.637 88.3542 14.1864 87.6685 15.9974C86.9776 17.7853 86.8634 19.7107 87.3259 21.7738C87.7988 23.8832 88.7573 25.615 90.2011 26.9692C91.6398 28.3003 93.3931 29.195 95.4609 29.6532ZM94.2079 17.9539C94.235 17.6106 94.2985 17.2797 94.3983 16.9611C94.6476 16.1254 95.095 15.4155 95.7403 14.8313C96.3857 14.2471 97.2279 13.8376 98.267 13.6028C99.2137 13.3889 100.064 13.3918 100.816 13.6114C101.592 13.8258 102.268 14.2453 102.845 14.87C103.112 15.1503 103.351 15.4737 103.563 15.8404L94.2079 17.9539Z" fill="#1E1C16"/>
</svg>
